HIERARCHY
ROOT Hips
{
  OFFSET -31.5692 30.0904 122.763
  CHANNELS 6 Xposition Yposition Zposition Zrotation Xrotation Yrotation
  JOINT LeftUpLeg
  {
    OFFSET 8.64259 1.95398 -2.38835
    CHANNELS 3 Zrotation Xrotation Yrotation
    JOINT LeftLeg
    {
      OFFSET 43.7702 0 0
      CHANNELS 3 Zrotation Xrotation Yrotation
      JOINT LeftFoot
      {
        OFFSET 40.6238 0 0
        CHANNELS 3 Zrotation Xrotation Yrotation
        JOINT LeftToeBase
        {
          OFFSET 12.7242 0 0
          CHANNELS 3 Zrotation Xrotation Yrotation
          End Site
          {
            OFFSET 0 0 0
          }
        }
      }
    }
  }
  JOINT RightUpLeg
  {
    OFFSET -8.2249 1.95398 -2.59336
    CHANNELS 3 Zrotation Xrotation Yrotation
    JOINT RightLeg
    {
      OFFSET 43.5653 0 0
      CHANNELS 3 Zrotation Xrotation Yrotation
      JOINT RightFoot
      {
        OFFSET 40.6238 0 0
        CHANNELS 3 Zrotation Xrotation Yrotation
        JOINT RightToeBase
        {
          OFFSET 12.7242 0 0
          CHANNELS 3 Zrotation Xrotation Yrotation
          End Site
          {
            OFFSET 0 0 0
          }
        }
      }
    }
  }
  JOINT Spine
  {
    OFFSET 0.165834 0.87714 6.61349
    CHANNELS 3 Zrotation Xrotation Yrotation
    JOINT Spine1
    {
      OFFSET 7.38963 1.71661e-005 0
      CHANNELS 3 Zrotation Xrotation Yrotation
      JOINT Spine2
      {
        OFFSET 11.9445 1.14441e-005 0
        CHANNELS 3 Zrotation Xrotation Yrotation
        JOINT Spine3
        {
          OFFSET 14.7254 4.19617e-005 0
          CHANNELS 3 Zrotation Xrotation Yrotation
          JOINT Spine4
          {
            OFFSET 10.9679 0 0
            CHANNELS 3 Zrotation Xrotation Yrotation
            JOINT RightShoulder
            {
              OFFSET 2.46616 -1.6653 3.69651
              CHANNELS 3 Zrotation Xrotation Yrotation
              JOINT RightArm
              {
                OFFSET 13.0012 0 0
                CHANNELS 3 Zrotation Xrotation Yrotation
                JOINT RightForeArm
                {
                  OFFSET 28.7848 1.62311e-005 0
                  CHANNELS 3 Zrotation Xrotation Yrotation
                  JOINT RightHand
                  {
                    OFFSET 26.5688 1.62095e-005 0
                    CHANNELS 3 Zrotation Xrotation Yrotation
                    End Site
                    {
                      OFFSET 0 0 0
                    }
                  }
                }
              }
            }
            JOINT LeftShoulder
            {
              OFFSET 2.38034 -1.29275 -3.7523
              CHANNELS 3 Zrotation Xrotation Yrotation
              JOINT LeftArm
              {
                OFFSET 16.3182 6.07031e-005 0
                CHANNELS 3 Zrotation Xrotation Yrotation
                JOINT LeftForeArm
                {
                  OFFSET 27.0901 0 0
                  CHANNELS 3 Zrotation Xrotation Yrotation
                  JOINT LeftHand
                  {
                    OFFSET 24.5451 1.51738e-005 0
                    CHANNELS 3 Zrotation Xrotation Yrotation
                    End Site
                    {
                      OFFSET 0 0 0
                    }
                  }
                }
              }
            }
            JOINT Neck
            {
              OFFSET 5.0226 -0.0266342 0
              CHANNELS 3 Zrotation Xrotation Yrotation
              JOINT Head
              {
                OFFSET 6.69364 2.86102e-005 0
                CHANNELS 3 Zrotation Xrotation Yrotation
                End Site
                {
                  OFFSET 0 0 0
                }
              }
            }
          }
        }
      }
    }
  }
}
MOTION
Frames:	15
Frame Time:	0.0416667
-261.991 59.3272 -240.332 117.824 -39.2844 126.563 161.553 54.6782 148.237 -118.398 19.8563 6.47823 89.7466 24.1722 3.01619 41.4237 4.38414 7.14603 136.333 39.5354 94.1429 -114.409 -11.4571 -5.48533 92.8272 -20.9056 -2.49675 36.5775 -3.92375 2.84125 1.6292 16.7466 -92.6351 -6.60308 2.39519 -4.74642 -18.2809 2.18424 -4.84694 -40.7851 3.71002 -3.80899 -20.7724 3.71001 -3.80899 74.6349 -32.1926 -133.907 -10.729 5.99891 -47.5108 17.7835 -66.5203 0.023546 -43.5975 -9.34967 12.8376 -93.158 -29.511 67.1459 -4.64733 4.20234 -71.6483 -2.05916 55.9549 0.00656165 28.2367 0.907808 0.626705 34.0093 -6.8207 -0.726312 -3.9224 -6.12787 -4.53525 
-261.834 59.213 -240.263 117.898 -39.0683 126.717 161.378 54.4325 148.391 -118.596 19.5996 6.4364 90.2904 24.4325 2.70806 41.3144 4.33828 7.08967 136.214 39.362 93.7624 -114.582 -11.7844 -5.53959 92.9087 -21.023 -2.53809 36.7369 -3.98871 2.81617 1.6381 16.7695 -92.6399 -6.64868 2.41196 -4.75174 -18.3265 2.20074 -4.853 -40.8309 3.7276 -3.80906 -20.8182 3.72758 -3.80905 74.5547 -32.3817 -133.912 -11.129 5.71977 -47.4331 17.8321 -65.5934 0.0227035 -42.6093 -8.9614 12.4589 -92.913 -29.0704 67.4197 -5.18529 4.26341 -71.7833 -1.99848 56.7304 0.0066964 28.4905 0.890112 0.671634 33.7733 -6.45247 -1.34726 -4.26749 -5.5105 -3.23501 
-261.842 59.0245 -240.293 117.347 -39.2141 126.514 160.332 54.8029 149.091 -118.841 19.515 6.38021 90.222 24.3469 2.77765 41.5077 4.38825 7.34613 135.725 39.7796 94.3994 -114.828 -11.7137 -5.51736 92.7576 -20.9176 -2.77327 37.0349 -4.14414 3.07559 1.64934 16.7204 -92.6624 -6.55034 2.42562 -4.79685 -18.2282 2.2124 -4.89866 -40.7319 3.75414 -3.84803 -20.7192 3.75414 -3.84801 74.4042 -32.5492 -134.051 -11.5467 5.58371 -47.2935 17.941 -65.2843 0.0224371 -42.675 -8.97473 12.4952 -93.0393 -29.1114 67.198 -5.64642 4.28038 -71.6111 -1.52504 56.8632 0.00672016 29.3431 0.831314 0.635835 33.6741 -6.08423 -1.33723 -4.53513 -5.16318 -2.8368 
-262.02 58.7889 -240.367 116.251 -39.6915 126.082 158.434 55.6531 150.525 -118.995 19.0921 6.30344 90.0951 23.9788 2.60982 41.5923 4.44521 7.28265 135.098 40.5696 95.9236 -114.936 -11.0881 -5.40022 92.6807 -20.6148 -2.47095 36.4407 -3.88314 2.99247 1.67465 16.6317 -92.6799 -6.37198 2.46727 -4.83195 -18.0499 2.25249 -4.93556 -40.5537 3.8044 -3.86902 -20.541 3.80441 -3.86902 74.5801 -32.4413 -133.828 -10.8694 5.80143 -47.6688 17.7338 -65.9191 0.0229919 -42.3387 -8.96583 12.5985 -92.961 -28.8494 67.2335 -5.95035 4.33408 -71.3067 -1.59372 56.6583 0.00668358 29.1183 0.868305 0.740477 33.3786 -5.55604 -1.0992 -4.25943 -4.77545 -3.04459 
-262.315 58.4706 -240.334 114.983 -40.2253 125.579 155.938 56.4714 152.588 -119.148 18.733 6.21544 90.1694 23.6542 2.29776 41.4693 4.34727 7.44973 134.798 41.2648 98.268 -115.166 -9.19452 -5.14808 93.0845 -20.6923 -2.92171 36.7738 -4.10656 3.7185 1.72558 16.5519 -92.7088 -6.21096 2.55604 -4.88231 -17.889 2.33895 -4.98976 -40.3934 3.90418 -3.8904 -20.3807 3.90418 -3.89041 74.7288 -32.4754 -133.552 -10.5488 6.39182 -48.2805 17.5721 -66.3999 0.0234327 -42.9608 -9.03692 12.3493 -92.9327 -29.4168 67.5301 -4.75524 4.2794 -71.6932 -2.1542 54.6733 0.00635293 32.5622 1.04964 1.82713 34.1512 -5.37158 -0.946463 -4.62332 -4.64307 -3.14596 
-262.514 58.0996 -240.551 113.241 -41.0815 124.94 152.679 57.7349 155.233 -119.515 18.0545 6.10013 90.0452 23.1273 1.8146 41.3903 4.24154 7.76858 133.484 42.6811 100.652 -115.354 -9.0652 -5.05599 92.4763 -20.0386 -2.47342 37.6495 -4.39978 3.02886 1.78483 16.4032 -92.7293 -5.91186 2.66158 -4.92074 -17.5898 2.44271 -5.03277 -40.0957 4.01638 -3.89535 -20.0831 4.01639 -3.89535 74.7859 -32.2961 -133.578 -10.8262 6.40164 -48.7861 17.747 -66.2354 0.0232799 -42.6401 -8.87808 12.1422 -92.8121 -29.4182 67.7574 -4.81947 4.41033 -71.7209 -2.18325 53.2196 0.0061353 34.6255 0.916624 1.6123 34.3217 -5.10627 -0.723872 -4.55424 -4.48606 -3.33327 
-262.713 57.6654 -240.771 111.388 -42.1099 123.968 149.555 59.1763 157.89 -119.876 17.4916 5.9697 89.9347 22.7916 1.79499 41.4724 4.31991 7.59443 132.097 44.3194 103.261 -115.756 -8.43618 -4.93956 92.4343 -19.8992 -2.61923 37.3151 -4.34956 3.8766 1.86196 16.2454 -92.7172 -5.59373 2.81283 -4.8923 -17.2713 2.59508 -5.011 -39.7814 4.15213 -3.82266 -19.7687 4.15214 -3.82266 74.7323 -32.4843 -133.54 -11.3773 6.32976 -48.5375 17.7908 -65.9348 0.0230061 -43.5788 -9.08864 12.1884 -92.7568 -29.7014 67.9807 -4.17037 4.3041 -72.1691 -2.5325 53.505 0.00617653 34.1495 0.945552 1.63965 34.981 -5.14599 -0.778802 -4.73419 -4.48583 -3.30148 
-262.909 57.1462 -240.984 109.679 -43.0665 123.077 146.063 60.4676 161.033 -120.399 16.9882 5.82816 89.7753 22.3383 1.5861 41.4778 4.31528 7.6319 130.63 45.9958 105.727 -116.227 -8.08175 -4.88055 92.1532 -19.4202 -2.0267 36.1913 -3.7317 2.61966 1.91227 16.1134 -92.7082 -5.32804 2.91101 -4.87487 -17.0053 2.69391 -4.99792 -39.5182 4.24054 -3.77647 -19.5056 4.24055 -3.77646 74.708 -32.4371 -133.614 -11.2103 6.86278 -48.3488 17.4276 -66.5634 0.0498302 -42.256 -8.75418 11.9451 -92.8281 -30.081 68.0043 -3.90761 4.11218 -72.1537 -2.59334 53.6859 0.00620303 34.4633 0.832736 1.38013 35.1442 -5.03865 -0.522038 -4.4191 -4.50321 -3.51602 
-263.109 56.6746 -241.267 107.439 -44.3108 121.877 141.817 61.9948 165.087 -120.793 16.5227 5.69944 89.7014 21.9527 1.23473 41.399 4.23061 7.84556 128.585 47.8539 108.96 -116.662 -7.73811 -4.80644 91.8709 -18.9385 -1.62561 38.2919 -4.64809 2.8055 1.9819 15.9175 -92.6641 -4.93365 3.05658 -4.79132 -16.6103 2.84301 -4.92087 -39.1287 4.35435 -3.65279 -19.1161 4.35436 -3.65282 74.7909 -32.4101 -133.492 -13.401 3.62883 -48.0504 19.2854 -63.2376 -0.313437 -44.3865 -10.0135 14.6577 -92.5036 -29.3501 68.3124 -4.58659 4.19211 -71.898 -2.24689 53.7247 0.00620875 34.027 0.931466 1.63392 35.1406 -5.12831 -1.03851 -3.43286 -4.38876 -3.0911 
-263.299 56.1569 -241.503 105.445 -45.6184 120.622 137.92 63.339 168.863 -121.273 16.0477 5.56218 89.4181 21.6516 1.6253 41.6 4.37932 7.63474 126.961 49.7374 112.196 -117.073 -7.0684 -4.70211 91.5091 -18.5892 -1.67576 38.4889 -4.80173 3.53614 2.03405 15.7232 -92.6065 -4.5432 3.17271 -4.68613 -16.2192 2.96366 -4.82089 -38.743 4.43356 -3.51735 -18.7303 4.43355 -3.51734 74.799 -32.2985 -133.554 -12.9443 3.96509 -48.2914 19.4365 -63.8893 0.0833464 -45.081 -9.94926 13.9268 -92.5578 -29.3768 68.2205 -4.43219 4.30904 -71.356 -2.5506 53.5374 0.00618125 34.3112 0.931717 1.68259 35.0782 -5.00936 -0.509867 -1.88956 -4.56114 -3.76979 
-263.492 55.5983 -241.677 103.888 -46.7281 119.291 134.816 64.4139 171.823 -121.724 15.3222 5.44161 89.4018 21.2343 1.30322 41.6372 4.42358 7.51094 125.549 51.5993 114.873 -117.712 -6.41819 -4.66743 91.4039 -18.4159 -1.53516 38.0649 -4.61701 3.44656 2.06371 15.5665 -92.5256 -4.22896 3.25348 -4.53672 -15.9042 3.05087 -4.67522 -38.4333 4.46577 -3.35029 -18.4206 4.46577 -3.3503 74.7855 -32.4018 -133.506 -12.6713 3.74276 -47.8684 18.5107 -64.6055 -0.762032 -45.4928 -10.2909 14.5016 -92.4577 -29.0609 68.2792 -4.85151 4.52126 -71.1355 -2.35872 53.7531 0.00621294 34.2899 0.802583 1.3288 35.3661 -5.69934 -0.779288 -1.22492 -5.1044 -3.37319 
-263.594 55.0821 -241.749 102.218 -47.874 117.888 131.68 65.3205 175.071 -122.206 15.0035 5.32878 89.4604 20.9671 1.13427 41.7908 4.47127 7.68051 124.179 53.3464 117.569 -118.271 -5.47918 -4.58111 91.4714 -18.162 -1.01439 37.6296 -4.44776 3.5744 2.1238 15.391 -92.4707 -3.87622 3.38567 -4.43514 -15.5508 3.1874 -4.57958 -38.0854 4.56136 -3.21342 -18.0728 4.56137 -3.21343 74.7615 -32.5359 -133.455 -12.3865 3.32483 -47.199 17.5888 -64.1664 -1.6675 -44.815 -10.1579 14.6537 -92.7567 -30.2217 68.1958 -4.20892 4.50017 -71.4226 -2.72135 54.4803 0.00632291 34.0073 0.798449 1.33319 35.7847 -6.55422 -1.31046 -0.85831 -5.66225 -2.64693 
-263.735 54.6748 -241.78 100.373 -49.0903 116.3 128.406 66.327 178.778 -122.509 14.5669 5.23214 89.4124 20.4339 0.672038 42.0785 4.64955 7.5435 122.838 55.0449 120.518 -118.761 -4.90718 -4.42398 91.2455 -18.1208 -1.23849 37.8001 -4.44286 2.83915 2.15709 15.2234 -92.3595 -3.54022 3.48437 -4.22818 -15.2139 3.29509 -4.37721 -37.7552 4.59339 -2.986 -17.7426 4.59339 -2.98599 74.6358 -32.586 -133.634 -12.0639 3.46785 -47.3654 18.6043 -64.113 -0.461324 -45.1353 -10.0768 14.2061 -92.8318 -30.0189 67.9722 -5.27421 4.51095 -71.0709 -2.10197 55.4779 0.006482 33.7077 0.777833 1.31228 35.9214 -7.21203 -1.53005 -0.101327 -6.20642 -2.85556 
-263.87 54.3922 -241.755 98.2051 -50.334 114.279 125.265 67.4278 -177.657 -122.628 14.345 5.17282 89.0477 20.1486 1.26244 42.5109 5.10452 6.32018 121.489 56.8319 123.526 -118.958 -4.10552 -4.23408 90.9913 -17.8946 -0.92784 39.3098 -5.06304 2.61385 2.19503 15.0634 -92.2683 -3.21957 3.58639 -4.05947 -14.8924 3.40441 -4.21318 -37.4396 4.64005 -2.79409 -17.4269 4.64005 -2.79411 74.8954 -32.5948 -133.188 -11.6416 3.70343 -47.6486 18.8636 -64.6358 -0.0554515 -44.8179 -10.0212 14.1823 -92.8344 -29.8346 67.8904 -5.66873 4.54181 -71.3289 -1.55406 55.4256 0.00647342 32.744 0.600663 0.569543 36.812 -7.66275 -1.15994 -0.112382 -6.78775 -3.14717 
-263.954 54.2568 -241.719 95.8736 -51.4938 111.919 122.691 68.77 -174.627 -122.517 14.2827 5.13115 88.569 19.9218 2.10542 43.1614 5.64861 5.13669 120.052 58.5867 126.357 -119.125 -3.34922 -4.03799 90.9458 -17.9724 -1.07915 38.5049 -4.72811 2.69818 2.1948 14.9421 -92.1231 -2.97795 3.63242 -3.78758 -14.6498 3.46233 -3.94364 -37.2029 4.60232 -2.52057 -17.1903 4.60232 -2.52058 74.9887 -32.4364 -133.137 -11.0665 4.52117 -48.1874 18.6054 -65.0494 0.0314294 -45.6985 -10.0885 13.7404 -92.7657 -30.451 68.2739 -4.47932 4.31979 -71.8582 -2.24903 55.5129 0.00648777 33.0019 0.900715 1.53658 38.4131 -7.83332 -0.841845 -1.07824 -7.05191 -3.7033 
